<svg id="Layer_1" data-name="Layer 1" xmlns="http://www.w3.org/2000/svg" viewBox="0 0 413.86 297.64"><defs><style>.cls-1{fill:#f2dc08;}.cls-2{fill:#373839;}.cls-3{fill:none;}.cls-4{fill:#bba412;}</style></defs><path class="cls-1" d="M187.68,148.87q-6.68,0-10.1-3.6a11.54,11.54,0,0,1-3.42-8.17q0-6.84,3.77-11t12.56-5l18.61-1.76v13.17a12.91,12.91,0,0,1-1.76,6.67,17.24,17.24,0,0,1-4.74,5.18,21.75,21.75,0,0,1-6.85,3.34A28.31,28.31,0,0,1,187.68,148.87Z"/><path class="cls-2" d="M148.92,72.05a22.11,22.11,0,0,0-5.61-.7A26,26,0,0,0,131,74.6q-6.14,3.24-10.35,11.48L120,71.35H90.17a21,21,0,0,0,0,15.08h10.52v60.85H90.17a21,21,0,0,0,0,15.08h45.24a20.87,20.87,0,0,0,0-15.08H123.14V112.91a27.41,27.41,0,0,1,1.93-11,20.5,20.5,0,0,1,4.65-6.93c.2-.19.4-.37.61-.54a27.91,27.91,0,0,1,20.36-5.68c1,.08,1.93.19,2.87.35l.09-15.44a38.48,38.48,0,0,0-4.73-1.58"/><path class="cls-2" d="M249.82,130.08a14.66,14.66,0,0,1,7.54-1.76,18.75,18.75,0,0,1,3.95.44,12.43,12.43,0,0,1,3.77,1.49v3.16a10.81,10.81,0,0,0,1.93,6.06,18.9,18.9,0,0,0,5.18,5.09,28.26,28.26,0,0,0,7.55,3.51,30.93,30.93,0,0,0,9,1.31,36.59,36.59,0,0,0,6.32-.52,19.57,19.57,0,0,0,5.26-1.67,9.26,9.26,0,0,0,3.6-3.07,8.21,8.21,0,0,0,1.32-4.74,11.18,11.18,0,0,0-1-4.83,9.84,9.84,0,0,0-3.33-3.68,27.44,27.44,0,0,0-6.67-3.16q-4.31-1.5-10.8-3.07-5.08-1.23-10.7-2.81a44.34,44.34,0,0,1-10.53-4.48,25.24,25.24,0,0,1-8.08-7.46Q251.05,105.33,251,98a26,26,0,0,1,3.25-13.43,27,27,0,0,1,8.16-8.86,34.09,34.09,0,0,1,10.8-4.83,46.13,46.13,0,0,1,11.32-1.49c5.84,0,10.5.85,13.95,2.55a30.92,30.92,0,0,1,8.34,5.7V72.51a31.1,31.1,0,0,1,3.86-1.05,18.17,18.17,0,0,1,3.68-.35A18.91,18.91,0,0,1,322,72.69v28.6a16.66,16.66,0,0,1-7.55,1.76,19,19,0,0,1-7.54-1.76V98.84q0-6-5.09-10.53t-13.69-4.57q-8.43,0-12.55,3a9,9,0,0,0-4.13,7.54,10.25,10.25,0,0,0,.7,4,7,7,0,0,0,3.08,3.07A33.2,33.2,0,0,0,282,104.1q4.47,1.41,12,3.16,5.79,1.41,11.67,3.16a37.88,37.88,0,0,1,10.62,5,24.42,24.42,0,0,1,7.64,8.51q2.89,5.26,2.89,13.69a23.49,23.49,0,0,1-10.62,20.63A33.57,33.57,0,0,1,305.19,163a60,60,0,0,1-21.94.88,38.55,38.55,0,0,1-6.93-1.75,36,36,0,0,1-5.88-2.72c-1.82-1.06-3.6-2.17-5.36-3.34v5.09a12.43,12.43,0,0,1-3.77,1.49,18.75,18.75,0,0,1-3.95.44,18.23,18.23,0,0,1-4-.44,8.75,8.75,0,0,1-3.51-1.66Z"/><path class="cls-3" d="M178,126.13q-3.78,4.13-3.78,11a11.54,11.54,0,0,0,3.42,8.16q3.43,3.6,10.1,3.6a28.06,28.06,0,0,0,8.07-1.15,21.78,21.78,0,0,0,6.84-3.33,17.24,17.24,0,0,0,4.74-5.18,12.91,12.91,0,0,0,1.76-6.67V119.37l-18.61,1.76Q181.71,122,178,126.13Z"/><path class="cls-2" d="M212.63,104a12.91,12.91,0,0,1,1.76-6.67,17.24,17.24,0,0,1,4.74-5.18A21.78,21.78,0,0,1,226,88.85a26,26,0,0,1,2.9-.69A28.52,28.52,0,0,0,224,79.53a23.7,23.7,0,0,0-6.94-5.62,37.58,37.58,0,0,0-7.81-3.15,44.65,44.65,0,0,0-7.54-1.41Q198,69,195.41,69a63.17,63.17,0,0,0-11.94,1,73.24,73.24,0,0,0-9.74,2.55,56.28,56.28,0,0,0-7.63,3.24c-2.22,1.18-4.16,2.23-5.79,3.16V96.73a118.36,118.36,0,0,1,15.44-8.16A38.47,38.47,0,0,1,191,85.5,27.47,27.47,0,0,1,200,86.73a11.88,11.88,0,0,1,8.34,9.3,35.87,35.87,0,0,1,.79,7.9q-9,.87-18.87,1.58a69.08,69.08,0,0,0-18.34,3.68,32.59,32.59,0,0,0-13.95,9.3q-5.53,6.33-5.53,18.43a27.72,27.72,0,0,0,2.46,12,25.93,25.93,0,0,0,6.67,8.78,28.54,28.54,0,0,0,9.91,5.44A43.51,43.51,0,0,0,199.8,162,28,28,0,0,0,210.5,154l.88,8.6h29.31a21.06,21.06,0,0,0,0-15.1h-9.83v-32l-18.23,1.72Zm-3.53,28.5a12.91,12.91,0,0,1-1.76,6.67,17.24,17.24,0,0,1-4.74,5.18,21.78,21.78,0,0,1-6.84,3.33,28.06,28.06,0,0,1-8.07,1.15q-6.67,0-10.1-3.6a11.54,11.54,0,0,1-3.42-8.16q0-6.85,3.78-11t12.54-5l18.61-1.76Z"/><path class="cls-1" d="M244.14,91.3q-3.42-3.6-10.09-3.6a29.44,29.44,0,0,0-5.18.46l.06.15a36.7,36.7,0,0,1,1.93,12.63v14.53l.38,0q8.77-.87,12.55-5t3.77-11A11.54,11.54,0,0,0,244.14,91.3Z"/><path class="cls-4" d="M228.93,88.31l-.06-.15a26,26,0,0,0-2.9.69,21.78,21.78,0,0,0-6.84,3.33,17.24,17.24,0,0,0-4.74,5.18,12.91,12.91,0,0,0-1.76,6.67v13.16l18.23-1.72V100.94A36.7,36.7,0,0,0,228.93,88.31Z"/><path class="cls-2" d="M24.88,214.21h5.86a5.37,5.37,0,0,1,3.88,1.36,3.78,3.78,0,0,1,1.05,2.69v0c0,2.26-1.55,3.59-3.7,4l4.19,5.57H34.27l-4-5.3H26.42v5.3H24.88Zm5.73,7c2,0,3.51-1.06,3.51-2.81v0c0-1.68-1.29-2.69-3.49-2.69H26.42v5.54Z"/><path class="cls-2" d="M42.48,214.21h9.86v1.4H44v4.66h7.44v1.4H44v4.78h8.42v1.4h-10Z"/><path class="cls-2" d="M62.52,215.63h-4.6v-1.42H68.66v1.42h-4.6v12.22H62.52Z"/><path class="cls-2" d="M78.34,214.11h1.44L86,227.85H84.35l-1.6-3.6H75.32l-1.62,3.6H72.12Zm3.8,8.75-3.1-7-3.11,7Z"/><path class="cls-2" d="M92.34,214.21h1.54v13.64H92.34Z"/><path class="cls-2" d="M101.38,214.21h1.54v12.22h7.68v1.42h-9.22Z"/><path class="cls-2" d="M133.93,225.92a5.91,5.91,0,0,1-4.46,2.13c-2.46,0-4.29-1.54-4.29-3.82v0c0-1.82,1.21-3.12,3.29-3.94a4.44,4.44,0,0,1-1.36-3v0a3.33,3.33,0,0,1,3.61-3.24,3.16,3.16,0,0,1,3.31,3.08v0c0,1.74-1.23,2.85-3.22,3.55l3.12,3.18a17.75,17.75,0,0,0,1.64-3l1.27.58a19.19,19.19,0,0,1-2,3.43l2.38,2.44-1.17.89ZM133,225l-3.65-3.77c-1.81.67-2.61,1.78-2.61,2.93v0a2.63,2.63,0,0,0,2.85,2.57A4.68,4.68,0,0,0,133,225Zm-.41-7.8v0a1.86,1.86,0,0,0-1.93-1.89,2,2,0,0,0-2.07,2v0c0,.8.33,1.4,1.37,2.51C131.69,219.18,132.59,218.34,132.59,217.17Z"/><path class="cls-2" d="M157.71,214.11h1.44l6.22,13.74h-1.65l-1.6-3.6h-7.43l-1.62,3.6h-1.58Zm3.8,8.75-3.1-7-3.11,7Z"/><path class="cls-2" d="M170.4,225.86l1-1.13a6.46,6.46,0,0,0,4.67,1.93c1.84,0,3.05-1,3.05-2.32v0c0-1.26-.69-2-3.55-2.59C172.39,221,171,220,171,217.77v0c0-2.14,1.89-3.72,4.48-3.72a7.15,7.15,0,0,1,4.8,1.68l-.9,1.19a6,6,0,0,0-3.94-1.48c-1.77,0-2.9,1-2.9,2.2v0c0,1.28.7,2,3.7,2.65s4.44,1.77,4.44,3.86v0c0,2.34-1.94,3.86-4.65,3.86A8,8,0,0,1,170.4,225.86Z"/><path class="cls-2" d="M186.19,225.86l1-1.13a6.46,6.46,0,0,0,4.67,1.93c1.83,0,3-1,3-2.32v0c0-1.26-.68-2-3.54-2.59-3.14-.68-4.58-1.69-4.58-3.94v0c0-2.14,1.89-3.72,4.48-3.72a7.1,7.1,0,0,1,4.79,1.68l-.89,1.19a6,6,0,0,0-3.94-1.48c-1.77,0-2.9,1-2.9,2.2v0c0,1.28.7,2,3.7,2.65s4.44,1.77,4.44,3.86v0c0,2.34-1.95,3.86-4.66,3.86A8,8,0,0,1,186.19,225.86Z"/><path class="cls-2" d="M203.07,214.21h9.86v1.4h-8.32v4.66h7.45v1.4h-7.45v4.78H213v1.4h-10Z"/><path class="cls-2" d="M223.11,215.63h-4.6v-1.42h10.74v1.42h-4.6v12.22h-1.54Z"/><path class="cls-2" d="M244,225.86l1-1.13a6.47,6.47,0,0,0,4.68,1.93c1.83,0,3-1,3-2.32v0c0-1.26-.69-2-3.55-2.59-3.14-.68-4.58-1.69-4.58-3.94v0c0-2.14,1.89-3.72,4.48-3.72a7.15,7.15,0,0,1,4.8,1.68l-.9,1.19A6,6,0,0,0,249,215.4c-1.77,0-2.9,1-2.9,2.2v0c0,1.28.7,2,3.7,2.65s4.44,1.77,4.44,3.86v0c0,2.34-1.94,3.86-4.65,3.86A8,8,0,0,1,244,225.86Z"/><path class="cls-2" d="M260.3,221.07v0a7,7,0,1,1,13.92,0v0a7,7,0,1,1-13.92,0Zm12.32,0v0a5.42,5.42,0,0,0-5.38-5.63A5.35,5.35,0,0,0,261.9,221v0a5.42,5.42,0,0,0,5.38,5.63A5.36,5.36,0,0,0,272.62,221.07Z"/><path class="cls-2" d="M281,214.21h1.54v12.22h7.68v1.42H281Z"/><path class="cls-2" d="M296,222.14v-7.93h1.54V222c0,3,1.56,4.6,4.17,4.6s4.11-1.52,4.11-4.5v-7.93h1.54V222c0,4-2.28,6-5.69,6S296,226,296,222.14Z"/><path class="cls-2" d="M318,215.63h-4.6v-1.42h10.74v1.42h-4.6v12.22H318Z"/><path class="cls-2" d="M330.6,214.21h1.54v13.64H330.6Z"/><path class="cls-2" d="M339,221.07v0A7,7,0,1,1,353,221v0a7,7,0,1,1-13.92,0Zm12.32,0v0A5.42,5.42,0,0,0,346,215.4a5.35,5.35,0,0,0-5.34,5.59v0a5.42,5.42,0,0,0,5.38,5.63A5.35,5.35,0,0,0,351.36,221.07Z"/><path class="cls-2" d="M359.73,214.21h1.44l8.59,10.93V214.21h1.5v13.64H370l-8.81-11.19v11.19h-1.5Z"/><path class="cls-2" d="M377.74,225.86l.95-1.13a6.48,6.48,0,0,0,4.68,1.93c1.83,0,3-1,3-2.32v0c0-1.26-.68-2-3.55-2.59-3.14-.68-4.58-1.69-4.58-3.94v0c0-2.14,1.89-3.72,4.48-3.72a7.13,7.13,0,0,1,4.8,1.68l-.9,1.19a5.93,5.93,0,0,0-3.93-1.48c-1.78,0-2.91,1-2.91,2.2v0c0,1.28.7,2,3.7,2.65s4.45,1.77,4.45,3.86v0c0,2.34-2,3.86-4.66,3.86A8,8,0,0,1,377.74,225.86Z"/></svg>